<svg width="34" height="35" viewBox="0 0 34 35" fill="none" xmlns="http://www.w3.org/2000/svg">
<path d="M11.666 1.34615C11.666 0.6027 11.0633 0 10.3199 0C9.5764 0 8.9737 0.6027 8.9737 1.34615H11.666ZM8.9737 5.85801C8.9737 6.60147 9.5764 7.20417 10.3199 7.20417C11.0633 7.20417 11.666 6.60147 11.666 5.85801H8.9737ZM25.7734 1.34615C25.7734 0.6027 25.1707 0 24.4272 0C23.6838 0 23.0811 0.6027 23.0811 1.34615H25.7734ZM23.0811 5.85801C23.0811 6.60147 23.6838 7.20417 24.4272 7.20417C25.1707 7.20417 25.7734 6.60147 25.7734 5.85801H23.0811ZM4.02747 23.0298C3.27525 19.7479 3.27525 16.3321 4.02747 13.0501L1.4032 12.4487C0.56026 16.1264 0.56026 19.9536 1.4032 23.6313L4.02747 23.0298ZM30.7197 13.0501C31.4719 16.3321 31.4719 19.7479 30.7197 23.0298L33.344 23.6313C34.1868 19.9536 34.1868 16.1264 33.344 12.4487L30.7197 13.0501ZM22.2289 31.7326C19.0352 32.4994 15.7119 32.4994 12.5183 31.7326L11.8898 34.3506C15.4967 35.2165 19.2506 35.2165 22.8572 34.3506L22.2289 31.7326ZM12.5183 4.34731C15.7119 3.58064 19.0352 3.58064 22.2289 4.34731L22.8572 1.72938C19.2506 0.863531 15.4965 0.863531 11.8898 1.72938L12.5183 4.34731ZM12.5183 31.7326C8.32035 30.725 5.0207 27.3634 4.02747 23.0298L1.4032 23.6313C2.61874 28.9348 6.67144 33.0978 11.8898 34.3506L12.5183 31.7326ZM22.8572 34.3506C28.0757 33.0978 32.1283 28.9348 33.344 23.6313L30.7197 23.0298C29.7264 27.3634 26.4267 30.725 22.2289 31.7326L22.8572 34.3506ZM22.2289 4.34731C26.4267 5.35509 29.7264 8.71665 30.7197 13.0501L33.344 12.4487C32.1283 7.14519 28.0757 2.98213 22.8572 1.72938L22.2289 4.34731ZM11.8898 1.72938C6.67144 2.98213 2.61874 7.14519 1.4032 12.4487L4.02747 13.0501C5.0207 8.71663 8.32035 5.35509 12.5183 4.34731L11.8898 1.72938ZM8.9737 1.34615V5.85801H11.666V1.34615H8.9737ZM23.0811 1.34615V5.85801H25.7734V1.34615H23.0811Z" fill="#111137"/>
<path d="M10.1727 14.4265C9.60821 13.9426 8.75837 14.0081 8.27455 14.5725C7.7907 15.1369 7.85607 15.9868 8.42056 16.4707L10.1727 14.4265ZM11.0915 16.9871L10.2154 18.0091C10.7195 18.4413 11.4634 18.4413 11.9675 18.0091L11.0915 16.9871ZM15.5573 14.9321C16.1218 14.4484 16.1871 13.5986 15.7032 13.0341C15.2195 12.4696 14.3696 12.4042 13.8052 12.8881L15.5573 14.9321ZM10.1727 22.1188C9.60821 21.6349 8.75837 21.7004 8.27455 22.2649C7.7907 22.8294 7.85607 23.6791 8.42056 24.163L10.1727 22.1188ZM11.0915 24.6794L10.2154 25.7014C10.7195 26.1336 11.4634 26.1336 11.9675 25.7014L11.0915 24.6794ZM15.5573 22.6246C16.1218 22.1407 16.1871 21.2908 15.7032 20.7263C15.2195 20.1619 14.3696 20.0965 13.8052 20.5804L15.5573 22.6246ZM19.1684 14.8717C18.425 14.8717 17.8223 15.4744 17.8223 16.2178C17.8223 16.9612 18.425 17.564 19.1684 17.564V14.8717ZM25.4505 17.564C26.1939 17.564 26.7966 16.9612 26.7966 16.2178C26.7966 15.4744 26.1939 14.8717 25.4505 14.8717V17.564ZM19.1684 22.5639C18.425 22.5639 17.8223 23.1667 17.8223 23.9101C17.8223 24.6535 18.425 25.2562 19.1684 25.2562V22.5639ZM25.4505 25.2562C26.1939 25.2562 26.7966 24.6535 26.7966 23.9101C26.7966 23.1667 26.1939 22.5639 25.4505 22.5639V25.2562ZM8.42056 16.4707L10.2154 18.0091L11.9675 15.9649L10.1727 14.4265L8.42056 16.4707ZM11.9675 18.0091L15.5573 14.9321L13.8052 12.8881L10.2154 15.9649L11.9675 18.0091ZM8.42056 24.163L10.2154 25.7014L11.9675 23.6574L10.1727 22.1188L8.42056 24.163ZM11.9675 25.7014L15.5573 22.6246L13.8052 20.5804L10.2154 23.6574L11.9675 25.7014ZM19.1684 17.564H25.4505V14.8717H19.1684V17.564ZM19.1684 25.2562H25.4505V22.5639H19.1684V25.2562Z" fill="#111137"/>
</svg>
