<svg width="169" height="39" viewBox="0 0 169 39" fill="none" xmlns="http://www.w3.org/2000/svg">
<path d="M55.9155 18.9021H69.3344C69.6186 18.9021 69.8489 19.1324 69.8489 19.4166V21.4539C69.8489 21.7382 69.6186 21.9684 69.3344 21.9684H64.8033C64.5191 21.9684 64.2888 22.1987 64.2888 22.483V37.3831C64.2888 37.6674 64.0585 37.8976 63.7743 37.8976H61.4777C61.1934 37.8976 60.9632 37.6674 60.9632 37.3831V22.483C60.9632 22.1987 60.7329 21.9684 60.4486 21.9684H55.9176C55.6334 21.9684 55.4031 21.7382 55.4031 21.4539V19.4166C55.4031 19.1324 55.6334 18.9021 55.9176 18.9021H55.9155Z" fill="#111137"/>
<path d="M75.849 24.6967C79.8241 24.6967 82.7079 27.4518 82.7079 31.4517C82.7079 35.4517 79.8241 38.2068 75.849 38.2068C71.874 38.2068 68.9902 35.4517 68.9902 31.4517C68.9902 27.4518 71.874 24.6967 75.849 24.6967ZM75.849 35.3749C78.0316 35.3749 79.5378 33.7899 79.5378 31.4517C79.5378 29.1136 78.0316 27.5286 75.849 27.5286C73.6665 27.5286 72.1603 29.1136 72.1603 31.4517C72.1603 33.7899 73.6665 35.3749 75.849 35.3749Z" fill="#111137"/>
<path d="M96.7922 25.5742V37.3811C96.7922 37.6653 96.5619 37.8956 96.2776 37.8956H94.3046C94.0474 37.8956 93.8295 37.7047 93.7943 37.4516L93.7735 37.2981C93.7175 36.8914 93.232 36.713 92.9229 36.9827C92.0453 37.7524 90.7694 38.2338 89.4645 38.2338C86.5019 38.2338 84.7612 36.2338 84.7612 33.0886V25.5742C84.7612 25.29 84.9915 25.0597 85.2757 25.0597H87.4168C87.701 25.0597 87.9313 25.29 87.9313 25.5742V31.9724C87.9313 34.4143 88.8919 35.4018 90.6595 35.4018C92.6594 35.4018 93.6221 34.2317 93.6221 31.7899V25.5742C93.6221 25.29 93.8524 25.0597 94.1366 25.0597H96.2776C96.5619 25.0597 96.7922 25.29 96.7922 25.5742Z" fill="#111137"/>
<path d="M108.122 27.431C108.122 27.7152 107.892 27.9455 107.608 27.9455H106.952C104.666 27.9455 103.236 29.1674 103.236 31.6612V37.3831C103.236 37.6673 103.006 37.8976 102.722 37.8976H100.581C100.296 37.8976 100.066 37.6673 100.066 37.3831V25.6011C100.066 25.3169 100.296 25.0866 100.581 25.0866H102.587C102.852 25.0866 103.072 25.2878 103.099 25.5513C103.141 25.987 103.668 26.1675 103.979 25.8604C104.63 25.2152 105.562 24.8273 106.72 24.8273C107.035 24.8273 107.352 24.8542 107.697 24.9165C107.942 24.9621 108.122 25.1737 108.122 25.4227V27.4289V27.431Z" fill="#111137"/>
<path d="M110.382 37.8956V20.4872H117.63C122.776 20.4872 125.998 23.8917 125.998 29.1924C125.998 34.4932 122.776 37.8977 117.63 37.8977H110.382V37.8956ZM111.552 21.5536V36.8313H117.633C122.388 36.8313 124.805 34.1031 124.805 29.1924C124.805 24.2817 122.388 21.5536 117.633 21.5536H111.552Z" fill="#1F75FE"/>
<path d="M127.973 34.9598C127.973 32.8021 129.844 31.9972 132.078 31.7378L138.392 31.0096V29.8665C138.392 27.0865 137.17 25.9164 134.13 25.9164C131.091 25.9164 129.427 27.0865 129.427 29.5802V29.7109H128.284V29.5802C128.284 27.0595 130.363 24.877 134.182 24.877C138.002 24.877 139.483 27.0865 139.483 29.7358V37.8954H138.47V34.2834H138.392C137.56 36.7523 135.17 38.1547 132.13 38.1547C129.688 38.1547 127.973 36.9846 127.973 34.9598ZM132.313 37.1942C135.562 37.1942 138.394 35.5573 138.394 32.1009V31.8665L132.495 32.5428C130.234 32.7772 129.118 33.2959 129.118 34.8809C129.118 36.466 130.078 37.1942 132.313 37.1942Z" fill="#1F75FE"/>
<path d="M142.134 33.6861V33.6342H143.277V33.7649C143.277 36.2337 144.732 37.1424 148.188 37.1424C151.358 37.1424 152.501 36.3624 152.501 34.6487C152.501 33.0906 151.566 32.545 149.227 32.1799L145.875 31.6861C143.64 31.3479 142.132 30.516 142.132 28.4123C142.132 26.1509 144.366 24.8792 147.588 24.8792C151.07 24.8792 153.462 26.3853 153.462 29.348V29.3998H152.319V29.2691C152.319 27.0596 151.124 25.8646 147.564 25.8646C144.576 25.8646 143.275 26.6177 143.275 28.4102C143.275 29.9164 144.055 30.462 146.342 30.8002L149.59 31.294C152.084 31.657 153.644 32.5409 153.644 34.5948C153.644 37.0117 151.279 38.1549 148.188 38.1549C144.393 38.1549 142.134 36.6217 142.134 33.6861Z" fill="#1F75FE"/>
<path d="M156.347 37.8956V20.4872H157.518V29.0368H157.596C158.038 26.9062 159.754 24.8792 163.001 24.8792C166.613 24.8792 168.432 27.2962 168.432 30.6219V37.8977H167.289V30.5451C167.289 27.3501 165.756 25.9207 162.717 25.9207C159.028 25.9207 157.52 28.4933 157.52 32.0534V37.8998H156.349L156.347 37.8956Z" fill="#1F75FE"/>
<path d="M52.621 36.3832C52.621 35.9289 52.3409 35.5264 51.9218 35.3521C47.7331 33.6177 44.7788 29.4643 44.8182 24.6656C44.8348 22.6386 45.3783 20.7362 46.3182 19.091C47.258 17.4458 49.5401 17.425 50.5525 18.9769L50.5836 19.0246C51.1874 19.9478 52.623 19.5204 52.623 18.4167V18.3213C52.623 18.1055 52.5608 17.8939 52.4425 17.7134L52.2164 17.3669C51.2807 15.9334 52.0318 13.977 53.7019 13.5952C54.5711 13.396 55.4798 13.2944 56.4134 13.3068C59.1644 13.34 61.6851 14.3545 63.6478 16.0122C63.8469 16.1802 64.098 16.2798 64.3573 16.2798H65.2743C66.2784 16.2798 66.768 15.0495 66.0357 14.3628C63.961 12.4168 61.2992 11.089 58.347 10.672C55.4529 10.2633 52.6956 10.728 50.2994 11.838C48.9405 12.4666 47.3887 11.477 47.3887 9.97909V8.76127L51.011 3.22401C51.4177 2.60369 51.6334 1.87756 51.6334 1.13691C51.6334 0.510365 51.1251 0 50.4965 0H44.0589C43.4323 0 42.9219 0.50829 42.9219 1.13691C42.9219 1.76346 43.4302 2.27382 44.0589 2.27382C46.146 2.27382 47.3991 4.58914 46.258 6.336L45.0028 8.25713H25.9056C25.3932 8.25713 24.9181 7.99987 24.638 7.57042L24.1318 6.7945C23.692 6.12023 24.1754 5.22813 24.9803 5.22813C25.6069 5.22813 26.1172 4.71984 26.1172 4.09122C26.1172 3.46467 25.609 2.95431 24.9803 2.95431H18.5427C17.9161 2.95431 17.4058 3.4626 17.4058 4.09122C17.4058 4.71777 17.9141 5.22813 18.5427 5.22813H19.5759C20.0883 5.22813 20.5634 5.48539 20.8435 5.91484L22.7687 8.86085C23.0882 9.35047 23.1111 9.98739 22.7999 10.4832C22.1132 11.5786 20.7397 12.0309 19.5447 11.5496C17.3788 10.6782 14.9473 10.3256 12.4058 10.643C6.15284 11.421 1.1218 16.2923 0.171605 22.5183C-1.22879 31.6924 6.13624 39.545 15.1672 38.9703C22.4389 38.5077 28.2355 32.5098 28.4678 25.2278C28.5902 21.3731 27.1815 17.8503 24.804 15.2197C23.9866 14.3151 23.8787 12.9749 24.5447 11.9542L24.6671 11.7674L34.2022 26.3689C35.2623 26.3523 36.2457 25.8087 36.8266 24.9208L45.6294 11.4438C46.4696 12.7301 46.37 14.4168 45.3783 15.591C43.2726 18.0889 42.0112 21.3192 42.0319 24.8481C42.0672 30.8335 45.8327 35.9579 51.1023 38.0264C51.8305 38.3127 52.6189 37.7753 52.6189 36.9932V36.3853L52.621 36.3832ZM24.1961 19.0993C25.1484 20.7694 25.6919 22.7029 25.6919 24.7631C25.6919 31.9248 19.1194 37.5513 11.6776 35.9413C7.80219 35.1032 3.89769 31.1987 3.05953 27.3232C1.44959 19.8814 7.07606 13.3089 14.2378 13.3089C15.0987 13.3089 15.939 13.4043 16.746 13.5848C18.4431 13.9645 19.246 15.9168 18.2937 17.3732L14.0635 23.8502C13.7399 24.3461 13.8125 25.0286 14.2772 25.3979C14.8083 25.8232 15.5759 25.6905 15.9411 25.1344L19.9617 18.9789C20.9762 17.425 23.2812 17.4873 24.2003 19.1013L24.1961 19.0993ZM42.5817 11.9562L35.8204 22.3108C35.4553 22.871 34.6337 22.871 34.2686 22.3108L27.5073 11.9562C27.1048 11.3401 27.5467 10.5227 28.2832 10.5227H41.8079C42.5444 10.5227 42.9863 11.3401 42.5838 11.9562H42.5817Z" fill="#1F75FE"/>
</svg>
