<svg width="32" height="35" viewBox="0 0 32 35" fill="none" xmlns="http://www.w3.org/2000/svg">
<path fill-rule="evenodd" clip-rule="evenodd" d="M23.351 2.80823C21.5567 0.998089 19.0244 0 16.0696 0C13.1148 0 10.5826 0.998089 8.78834 2.80823C6.99547 4.61698 6.01124 7.16378 6.01124 10.1316C6.01124 14.1271 7.76523 16.7024 9.93603 18.2483C10.3579 18.5485 10.7939 18.8092 11.2338 19.0339C8.80781 19.6951 6.838 20.8477 5.23423 22.2773C2.69832 24.5378 1.12657 27.4461 0.067645 30.0503C-0.124178 30.522 0.105906 31.0586 0.581581 31.2489C1.05724 31.4392 1.59833 31.211 1.79015 30.7392C2.79806 28.2605 4.23755 25.6425 6.47573 23.6473C8.69145 21.6724 11.7385 20.2632 16.0696 20.2632C20.1185 20.2632 23.0416 21.4946 25.2113 23.2619C27.3992 25.044 28.8726 27.4135 29.9283 29.7559C30.6326 31.3187 29.3965 33.1579 27.4562 33.1579H6.02692C5.51404 33.1579 5.09826 33.5703 5.09826 34.0789C5.09826 34.5876 5.51404 35 6.02692 35H27.4562C30.5247 35 32.9635 31.9767 31.624 29.0043C30.5031 26.5175 28.8821 23.868 26.3901 21.8383C24.911 20.6336 23.1428 19.6621 21.0255 19.0671C22.1579 18.4461 23.0888 17.6219 23.8294 16.6878C25.4321 14.6668 26.1281 12.1582 26.1281 10.1316C26.1281 7.16378 25.1439 4.61698 23.351 2.80823ZM22.0266 4.09966C23.429 5.5146 24.2707 7.57306 24.2707 10.1316C24.2707 11.7892 23.6885 13.8858 22.3696 15.549C21.076 17.1804 19.0575 18.4211 16.0696 18.4211C14.8612 18.4211 12.7764 18.0031 11.0193 16.7517C9.30995 15.5345 7.86855 13.5045 7.86855 10.1316C7.86855 7.57306 8.71026 5.5146 10.1128 4.09966C11.5139 2.68612 13.5465 1.84211 16.0696 1.84211C18.5928 1.84211 20.6254 2.68612 22.0266 4.09966Z" fill="#111137"/>
</svg>
